<svg xmlns="http://www.w3.org/2000/svg" width="43" height="50" viewBox="0 0 43 50">
  <defs>
    <style>
      .cls-1 {
        fill: #ff223d;
        fill-rule: evenodd;
      }
    </style>
  </defs>
  <path id="_2" data-name="2" class="cls-1" d="M726.981,942c0,3.852-.017,7.7.015,11.555a1.525,1.525,0,0,1-.854,1.558q-9.917,5.753-19.785,11.592a1.4,1.4,0,0,1-1.659.038q-9.913-5.868-19.875-11.654a1.447,1.447,0,0,1-.812-1.472q0.034-11.61-.008-23.22a1.535,1.535,0,0,1,.91-1.528q9.91-5.764,19.785-11.592a1.322,1.322,0,0,1,1.562-.036q9.917,5.863,19.877,11.65a1.532,1.532,0,0,1,.864,1.554c-0.032,3.852-.015,7.7-0.015,11.555h0Zm-23.468,19.231c0-5.941.011-11.694-.029-17.446a1.414,1.414,0,0,0-.654-0.964q-6.957-4.132-13.951-8.2a6.519,6.519,0,0,0-.755-0.319,2.853,2.853,0,0,0-.082.425c-0.007,5.608-.025,11.217.021,16.825a1.658,1.658,0,0,0,.769,1.128c4.633,2.762,9.292,5.481,13.946,8.207C702.956,960.989,703.152,961.062,703.513,961.229Zm4.024-.056a3.486,3.486,0,0,0,.475-0.176c4.786-2.8,9.578-5.591,14.338-8.436a1.664,1.664,0,0,0,.594-1.23c0.038-5.285.025-10.569,0.021-15.854,0-.381-0.035-0.761-0.061-1.318-1.885,1.1-3.61,2.088-5.3,3.135a1.256,1.256,0,0,0-.356.918c-0.034,1.724,0,3.45-.031,5.174a1.333,1.333,0,0,1-.307.956c-1.141.74-2.337,1.393-3.694,2.179v-6.683c-1.705,1-3.2,1.921-4.745,2.756a1.648,1.648,0,0,0-1.006,1.694c0.05,5.284.024,10.569,0.027,15.854C707.5,960.456,707.52,960.77,707.537,961.173Zm-7.751-36.3c5.094,2.986,10.023,5.88,14.962,8.756a0.952,0.952,0,0,0,.782.1c1.771-1,3.518-2.038,5.421-3.154-5.147-3.017-10.1-5.928-15.07-8.814a0.918,0.918,0,0,0-.775.009C703.38,922.755,701.674,923.771,699.786,924.877Zm11.441,11.409c-0.248-.137-0.342-0.186-0.434-0.239q-7.264-4.265-14.532-8.522a0.885,0.885,0,0,0-.682-0.144c-1.814,1.02-3.606,2.08-5.533,3.2,5.126,3,10.059,5.9,15.01,8.771a1.155,1.155,0,0,0,.965-0.04C707.7,938.38,709.34,937.393,711.227,936.286Z" transform="translate(-684 -917)"/>
</svg>
