<svg xmlns="http://www.w3.org/2000/svg" width="45.03" height="45" viewBox="0 0 45.03 45">
  <defs>
    <style>
      .cls-1 {
        fill: #ff223d;
        fill-rule: evenodd;
      }
    </style>
  </defs>
  <path id="_3" data-name="3" class="cls-1" d="M986.642,951.029h8.479q9.014,0,18.029,0a4.971,4.971,0,0,1,.89.026,1.261,1.261,0,0,1,1.11,1.3,1.282,1.282,0,0,1-1.14,1.361,4.08,4.08,0,0,1-.71.023q-13.92,0-27.845,0c-1.549,0-2.024-.576-1.729-2.087a11.521,11.521,0,0,1,.323-1.475c0.925-2.749.55-5.433-.1-8.2-1.324-5.59-2.469-11.224-3.649-16.849a1.321,1.321,0,0,0-1.087-1.171c-0.937-.25-1.853-0.581-2.769-0.9a1.387,1.387,0,0,1-1.01-1.8,1.344,1.344,0,0,1,1.8-.82c1.461,0.454,2.935.89,4.343,1.477a2.332,2.332,0,0,1,1.043,1.282,18.9,18.9,0,0,1,.587,2.585h1.249q16.618,0,33.238,0c1.68,0,2.15.535,1.89,2.162-0.86,5.325-1.74,10.648-2.58,15.976a1.529,1.529,0,0,1-1.56,1.482c-5.05.384-10.1,0.79-15.15,1.183q-6.123.476-12.248,0.929a0.776,0.776,0,0,0-.845.783C987.073,949.175,986.85,950.033,986.642,951.029ZM1015.85,934H984.971c0.789,3.649,1.563,7.224,2.342,10.823,0.448-.02.8-0.026,1.149-0.053q6.828-.527,13.658-1.058,5.76-.447,11.54-0.9c0.4-.031.78,0,0.87-0.612C1014.93,939.482,1015.4,936.767,1015.85,934Zm-32.016-5.394a16.7,16.7,0,0,1,.335,1.709,0.871,0.871,0,0,0,1.086.894c5.092-.03,10.184-0.014,15.275-0.013,4.98,0,9.95.007,14.92-.018a1.107,1.107,0,0,0,.88-0.411,14.944,14.944,0,0,0,.35-2.161H983.834Zm29.8,25.489h-0.17c-0.05,0-.11,0-0.16,0h-0.75q-13.545,0-27.095,0a1.809,1.809,0,0,1-2.076-2.513c0.022-.116.043-0.233,0.064-0.35a8.312,8.312,0,0,1,.271-1.171,14.277,14.277,0,0,0-.113-8c-1.112-4.693-2.113-9.492-3.082-14.134q-0.284-1.364-.569-2.724a0.972,0.972,0,0,0-.831-0.9c-0.866-.231-1.72-0.533-2.547-0.825l-0.249-.088a1.736,1.736,0,0,1-1.23-2.238,1.7,1.7,0,0,1,2.242-1.054l0.485,0.151c1.288,0.4,2.62.809,3.889,1.339a2.669,2.669,0,0,1,1.238,1.485,10.579,10.579,0,0,1,.445,1.825c0.032,0.173.064,0.351,0.1,0.529h34.2a2.418,2.418,0,0,1,1.96.61,2.39,2.39,0,0,1,.28,1.966l-0.93,5.738c-0.55,3.354-1.11,6.822-1.65,10.236a1.889,1.889,0,0,1-1.88,1.781c-3.09.235-6.22,0.482-9.25,0.72l-5.9.463c-4.568.354-8.4,0.647-12.252,0.929a0.441,0.441,0,0,0-.521.479c-0.088.619-.224,1.229-0.368,1.875-0.033.146-.066,0.294-0.1,0.445h26.07c0.08,0,.15,0,0.22,0a3.467,3.467,0,0,1,.73.034,1.6,1.6,0,0,1,1.4,1.645,1.629,1.629,0,0,1-1.43,1.716A2.48,2.48,0,0,1,1013.63,954.1Zm-0.33-.716,0.17,0a2.439,2.439,0,0,0,.47-0.02,0.915,0.915,0,0,0,.85-1,0.9,0.9,0,0,0-.82-0.953,2.868,2.868,0,0,0-.58-0.024c-0.08,0-.16,0-0.24,0H986.206l0.09-.43c0.064-.306.129-0.6,0.193-0.883,0.141-.632.274-1.229,0.358-1.82a1.124,1.124,0,0,1,1.17-1.089c3.852-.281,7.682-0.574,12.243-0.928q2.955-.23,5.9-0.463c3.03-.239,6.17-0.485,9.26-0.72a1.185,1.185,0,0,0,1.23-1.184c0.54-3.414,1.1-6.884,1.65-10.238q0.465-2.87.93-5.738a1.775,1.775,0,0,0-.12-1.389,1.885,1.885,0,0,0-1.42-.36H982.918l-0.06-.281c-0.061-.284-0.112-0.563-0.162-0.833a10.1,10.1,0,0,0-.411-1.7,2.007,2.007,0,0,0-.847-1.077c-1.237-.517-2.553-0.923-3.826-1.317l-0.486-.15a1,1,0,0,0-1.358.587,1.033,1.033,0,0,0,.789,1.351l0.25,0.089c0.813,0.288,1.654.585,2.492,0.807a1.665,1.665,0,0,1,1.343,1.443l0.57,2.724c0.967,4.637,1.967,9.432,3.077,14.116,0.626,2.644,1.071,5.491.1,8.391a7.6,7.6,0,0,0-.245,1.069c-0.022.121-.043,0.24-0.066,0.36a1.147,1.147,0,0,0,1.382,1.663q13.546,0,27.095,0h0.75ZM987.031,945.2l-2.5-11.548h31.728l-0.06.413c-0.12.738-.25,1.472-0.37,2.2-0.32,1.967-.65,4-0.95,6a0.985,0.985,0,0,1-1.09.907l-0.11.007q-4.275.335-8.54,0.665l-6.2.48-10.449.809c-0.24.019-.473,0.027-0.743,0.037l-0.418.017Zm-1.622-10.836,2.186,10.1,0.125,0c0.263-.01.489-0.018,0.715-0.035q5.225-.4,10.449-0.809l6.2-.481,8.55-.663,0.11-.008c0.35-.023.4-0.026,0.44-0.3,0.3-2,.63-4.038.96-6.007,0.09-.594.19-1.19,0.29-1.788H985.409Zm-0.177-2.791a1.207,1.207,0,0,1-1.415-1.216,8.5,8.5,0,0,0-.2-1.1c-0.042-.186-0.086-0.376-0.126-0.574l-0.087-.428h33.689l-0.06.406c-0.03.2-.05,0.407-0.08,0.61a8.86,8.86,0,0,1-.28,1.6,1.378,1.378,0,0,1-1.21.666c-4.17.021-8.4,0.02-12.5,0.018h-2.43l-3.829,0c-3.751,0-7.63-.007-11.444.016h-0.025Zm-0.958-2.6c0.009,0.044.019,0.087,0.029,0.13a9.044,9.044,0,0,1,.218,1.19c0.043,0.452.142,0.58,0.732,0.571,3.816-.023,7.7-0.019,11.449-0.016l3.828,0h2.43c4.1,0,8.33,0,12.49-.018a1.084,1.084,0,0,0,.55-0.189,8.181,8.181,0,0,0,.25-1.45l0.03-.221H984.274Zm25.226,26.7a4.491,4.491,0,1,1-4.48,4.528A4.465,4.465,0,0,1,1009.5,955.661Zm-1.75,4.4a1.746,1.746,0,0,0,1.63,1.852,1.777,1.777,0,0,0,1.87-1.709,1.814,1.814,0,0,0-1.69-1.823A1.764,1.764,0,0,0,1007.75,960.057Zm1.73,4.942a4.847,4.847,0,0,1-3.43-8.245,4.8,4.8,0,0,1,3.45-1.449h0a4.856,4.856,0,0,1,3.41,8.268,4.769,4.769,0,0,1-3.43,1.426h0Zm0.02-8.982a4.128,4.128,0,0,0-4.13,4.168,4.146,4.146,0,0,0,4.11,4.1h0a4.108,4.108,0,0,0,4.12-4.172,4.119,4.119,0,0,0-4.1-4.1h0Zm-0.01,6.251c-0.05,0-.09,0-0.14,0a2.1,2.1,0,0,1-1.95-2.221h0a2.094,2.094,0,0,1,.69-1.469,2.032,2.032,0,0,1,1.49-.552,2.173,2.173,0,0,1,2.03,2.191,2.113,2.113,0,0,1-.7,1.5A2.084,2.084,0,0,1,1009.49,962.268Zm-0.01-3.537a1.328,1.328,0,0,0-.91.368,1.379,1.379,0,0,0-.46.974h0a1.387,1.387,0,0,0,1.29,1.48,1.424,1.424,0,0,0,1.5-1.364,1.461,1.461,0,0,0-1.35-1.456Zm-25.245,1.375a4.454,4.454,0,1,1,4.453,4.536A4.436,4.436,0,0,1,984.235,960.106Zm4.472,1.8a1.752,1.752,0,0,0,1.735-1.754,1.758,1.758,0,1,0-3.514.034A1.782,1.782,0,0,0,988.707,961.911ZM988.691,965h0a4.763,4.763,0,0,1-3.419-1.422,4.854,4.854,0,0,1-1.387-3.474h0A4.808,4.808,0,1,1,988.691,965Zm-4.1-4.891a4.144,4.144,0,0,0,1.183,2.967,4.056,4.056,0,0,0,2.916,1.211h0a4.135,4.135,0,0,0,.083-8.268,4.082,4.082,0,0,0-4.185,4.09h0Zm4.1,2.159a2.106,2.106,0,0,1-1.489-3.606,2.1,2.1,0,0,1,1.521-.641,2.158,2.158,0,0,1,2.074,2.138,2.12,2.12,0,0,1-2.086,2.109h-0.02Zm0-3.536a1.4,1.4,0,0,0-.984.432,1.392,1.392,0,0,0,.988,2.391H988.7a1.389,1.389,0,0,0,1.386-1.4,1.454,1.454,0,0,0-1.38-1.424h-0.022Z" transform="translate(-975 -920)"/>
</svg>
