<svg xmlns="http://www.w3.org/2000/svg" width="38" height="50"><path data-name="1" d="M37.611 25.061v22.486c0 1.932-.944 2.524-2.673 1.7-5.048-2.406-10.1-4.8-15.14-7.231a1.661 1.661 0 0 0-1.621.014q-7.515 3.62-15.054 7.186c-1.816.864-2.73.3-2.73-1.7V2.446C.393.866.856.391 2.403.391h33.139c1.638 0 2.073.44 2.073 2.079l-.004 22.591zM3.429 3.444v42.25c.383-.169.674-.289.957-.424 4.468-2.126 8.944-4.236 13.395-6.4a2.563 2.563 0 0 1 2.469.02c4.48 2.176 8.984 4.3 13.481 6.443.249.118.511.207.841.339V3.444H3.429zM1.721 50a1.562 1.562 0 0 1-.867-.241 2.467 2.467 0 0 1-.851-2.244V2.445c0-1.808.628-2.448 2.4-2.448h33.139c1.84 0 2.461.624 2.461 2.472V47.54a2.455 2.455 0 0 1-.863 2.211 2.4 2.4 0 0 1-2.363-.156l-3.876-1.846c-3.695-1.759-7.516-3.577-11.265-5.386a1.3 1.3 0 0 0-1.289.013c-4.111 1.981-8.3 3.974-12.352 5.9l-2.7 1.286A3.748 3.748 0 0 1 1.721 50zm17.285-8.583a2.173 2.173 0 0 1 .957.242c3.747 1.807 7.567 3.625 11.262 5.383l3.877 1.847a1.874 1.874 0 0 0 1.617.2 1.907 1.907 0 0 0 .5-1.548V19.313 2.47c0-1.418-.268-1.686-1.685-1.686Q18.965.778 2.395.778c-1.334 0-1.622.3-1.622 1.663v45.07a1.983 1.983 0 0 0 .491 1.581 1.9 1.9 0 0 0 1.687-.239l2.7-1.286c4.051-1.927 8.239-3.92 12.349-5.9a2.284 2.284 0 0 1 1.006-.248zM3.042 46.291V3.051H34.96v43.2l-.53-.212c-.108-.043-.209-.081-.305-.118a7.671 7.671 0 0 1-.559-.23l-2.952-1.4c-3.456-1.642-7.03-3.34-10.532-5.04a2.171 2.171 0 0 0-2.133-.02A1256.706 1256.706 0 0 1 7.771 44.1l-3.22 1.531c-.192.091-.387.176-.611.273l-.356.155zm15.944-8.119a3.242 3.242 0 0 1 1.431.362c3.5 1.7 7.072 3.4 10.526 5.039l2.953 1.4c.091.044.186.084.288.124V3.837H3.817V45.1c.142-.062.274-.121.4-.182l3.221-1.531c3.339-1.585 6.791-3.225 10.171-4.867a3.108 3.108 0 0 1 1.377-.346zm9.692-18.248a5.392 5.392 0 0 1-.651 1.008 47.831 47.831 0 0 1-2.7 2.668 1.476 1.476 0 0 0-.5 1.547 38.531 38.531 0 0 1 .636 3.863 1.949 1.949 0 0 1-.515 1.529 1.988 1.988 0 0 1-1.67.129c-1.274-.54-2.455-1.3-3.707-1.9a1.479 1.479 0 0 0-1.137 0c-1.2.567-2.355 1.215-3.516 1.854a1.394 1.394 0 0 1-1.864-.05 2.673 2.673 0 0 1-.483-1.742 30.2 30.2 0 0 1 .6-3.67 1.545 1.545 0 0 0-.557-1.623c-.917-.823-1.763-1.727-2.647-2.589a1.36 1.36 0 0 1-.519-1.72 2.63 2.63 0 0 1 1.455-1.051c1.281-.311 2.614-.391 3.91-.644a1.494 1.494 0 0 0 .921-.654c.64-1.171 1.2-2.384 1.773-3.592a1.415 1.415 0 0 1 1.528-1.087 2.588 2.588 0 0 1 1.425 1.1c.681 1.141 1.164 2.4 1.8 3.573a1.492 1.492 0 0 0 .919.659c1.329.254 2.676.41 4.016.614a1.637 1.637 0 0 1 1.483 1.78zm-4.768.839c-2.634.113-4.219-1.052-4.932-3.67-.641 2.69-2.309 3.733-4.912 3.529.848.987 1.849 1.688 2.14 2.616.3.97-.075 2.16-.175 3.518 1.97-1.848 3.951-1.8 6.053-.126-1.015-2.53-.375-4.385 1.826-5.865z" fill="#ff223d" fill-rule="evenodd"/></svg>