<svg xmlns="http://www.w3.org/2000/svg" width="38" height="50" viewBox="0 0 38 50">
  <defs>
    <style>
      .cls-1 {
        fill: #ff223d;
        fill-rule: evenodd;
      }
    </style>
  </defs>
  <path id="_1" data-name="1" class="cls-1" d="M427.611,942.061q0,11.242,0,22.486c0,1.932-.944,2.524-2.673,1.7-5.048-2.406-10.1-4.8-15.14-7.231a1.661,1.661,0,0,0-1.621.014q-7.515,3.62-15.054,7.186c-1.816.864-2.73,0.3-2.73-1.7q0-22.536,0-45.07c0-1.58.463-2.055,2.01-2.055q16.57,0,33.139,0c1.638,0,2.073.44,2.073,2.079Q427.613,930.77,427.611,942.061Zm-34.182-21.617v42.25c0.383-.169.674-0.289,0.957-0.424,4.468-2.126,8.944-4.236,13.395-6.4a2.563,2.563,0,0,1,2.469.02c4.48,2.176,8.984,4.3,13.481,6.443,0.249,0.118.511,0.207,0.841,0.339V920.444H393.429ZM391.721,967a1.562,1.562,0,0,1-.867-0.241,2.467,2.467,0,0,1-.851-2.244q0-22.536,0-45.07c0-1.808.628-2.448,2.4-2.448q16.57,0,33.139,0c1.84,0,2.461.624,2.461,2.472q0,8.421,0,16.843v11.915q0,8.155,0,16.313a2.455,2.455,0,0,1-.863,2.211,2.4,2.4,0,0,1-2.363-.156l-3.876-1.846c-3.695-1.759-7.516-3.577-11.265-5.386a1.3,1.3,0,0,0-1.289.013c-4.111,1.981-8.3,3.974-12.352,5.9l-2.7,1.286A3.748,3.748,0,0,1,391.721,967Zm17.285-8.583a2.173,2.173,0,0,1,.957.242c3.747,1.807,7.567,3.625,11.262,5.383l3.877,1.847a1.874,1.874,0,0,0,1.617.2,1.907,1.907,0,0,0,.5-1.548q0-8.157,0-16.313v-6.173h0v-5.742q0-8.421,0-16.843c0-1.418-.268-1.686-1.685-1.686q-16.569-.006-33.139-0.006c-1.334,0-1.622.3-1.622,1.663q0,22.533,0,45.07a1.983,1.983,0,0,0,.491,1.581,1.9,1.9,0,0,0,1.687-.239l2.7-1.286c4.051-1.927,8.239-3.92,12.349-5.9A2.284,2.284,0,0,1,409.006,958.419Zm-15.964,4.874V920.051H424.96v43.2l-0.53-.212c-0.108-.043-0.209-0.081-0.305-0.118-0.195-.074-0.379-0.145-0.559-0.23l-2.952-1.4c-3.456-1.642-7.03-3.34-10.532-5.04a2.171,2.171,0,0,0-2.133-.02c-3.384,1.643-6.837,3.284-10.178,4.869l-3.22,1.531c-0.192.091-.387,0.176-0.611,0.273-0.11.047-.228,0.1-0.356,0.155Zm15.944-8.119a3.242,3.242,0,0,1,1.431.362c3.5,1.7,7.072,3.4,10.526,5.039l2.953,1.4c0.091,0.044.186,0.084,0.288,0.124V920.837H393.817V962.1c0.142-.062.274-0.121,0.4-0.182l3.221-1.531c3.339-1.585,6.791-3.225,10.171-4.867A3.108,3.108,0,0,1,408.986,955.174Zm9.692-18.248a5.392,5.392,0,0,1-.651,1.008c-0.871.92-1.763,1.824-2.7,2.668a1.476,1.476,0,0,0-.5,1.547,38.531,38.531,0,0,1,.636,3.863,1.949,1.949,0,0,1-.515,1.529,1.988,1.988,0,0,1-1.67.129c-1.274-.54-2.455-1.3-3.707-1.9a1.479,1.479,0,0,0-1.137,0c-1.2.567-2.355,1.215-3.516,1.854a1.394,1.394,0,0,1-1.864-.05,2.673,2.673,0,0,1-.483-1.742,30.2,30.2,0,0,1,.6-3.67,1.545,1.545,0,0,0-.557-1.623c-0.917-.823-1.763-1.727-2.647-2.589a1.36,1.36,0,0,1-.519-1.72,2.63,2.63,0,0,1,1.455-1.051c1.281-.311,2.614-0.391,3.91-0.644a1.494,1.494,0,0,0,.921-0.654c0.64-1.171,1.2-2.384,1.773-3.592a1.415,1.415,0,0,1,1.528-1.087,2.588,2.588,0,0,1,1.425,1.1c0.681,1.141,1.164,2.4,1.8,3.573a1.492,1.492,0,0,0,.919.659c1.329,0.254,2.676.41,4.016,0.614A1.637,1.637,0,0,1,418.678,936.926Zm-4.768.839c-2.634.113-4.219-1.052-4.932-3.67-0.641,2.69-2.309,3.733-4.912,3.529,0.848,0.987,1.849,1.688,2.14,2.616,0.3,0.97-.075,2.16-0.175,3.518,1.97-1.848,3.951-1.8,6.053-.126C411.069,941.1,411.709,939.245,413.91,937.765Z" transform="translate(-390 -917)"/>
</svg>
