<svg xmlns="http://www.w3.org/2000/svg" width="43" height="50"><path data-name="2" d="M42.981 25c0 3.852-.017 7.7.015 11.555a1.525 1.525 0 0 1-.854 1.558q-9.917 5.753-19.785 11.592a1.4 1.4 0 0 1-1.659.038Q10.785 43.875.823 38.089a1.447 1.447 0 0 1-.812-1.472q.034-11.61-.008-23.22a1.535 1.535 0 0 1 .91-1.528Q10.823 6.105 20.698.277A1.322 1.322 0 0 1 22.26.241q9.917 5.863 19.877 11.65a1.532 1.532 0 0 1 .864 1.554c-.032 3.852-.015 7.7-.015 11.555zM19.513 44.231c0-5.941.011-11.694-.029-17.446a1.414 1.414 0 0 0-.654-.964q-6.957-4.132-13.951-8.2a6.519 6.519 0 0 0-.755-.319 2.853 2.853 0 0 0-.082.425c-.007 5.608-.025 11.217.021 16.825a1.658 1.658 0 0 0 .769 1.128c4.633 2.762 9.292 5.481 13.946 8.207.178.102.374.175.735.342zm4.024-.056a3.486 3.486 0 0 0 .475-.176c4.786-2.8 9.578-5.591 14.338-8.436a1.664 1.664 0 0 0 .594-1.23c.038-5.285.025-10.569.021-15.854 0-.381-.035-.761-.061-1.318-1.885 1.1-3.61 2.088-5.3 3.135a1.256 1.256 0 0 0-.356.918c-.034 1.724 0 3.45-.031 5.174a1.333 1.333 0 0 1-.307.956c-1.141.74-2.337 1.393-3.694 2.179V22.84c-1.705 1-3.2 1.921-4.745 2.756a1.648 1.648 0 0 0-1.006 1.694c.05 5.284.024 10.569.027 15.854.008.312.028.626.045 1.029zm-7.751-36.3c5.094 2.986 10.023 5.88 14.962 8.756a.952.952 0 0 0 .782.1c1.771-1 3.518-2.038 5.421-3.154-5.147-3.017-10.1-5.928-15.07-8.814a.918.918 0 0 0-.775.009c-1.726.983-3.432 1.999-5.32 3.105zm11.441 11.409c-.248-.137-.342-.186-.434-.239q-7.264-4.265-14.532-8.522a.885.885 0 0 0-.682-.144c-1.814 1.02-3.606 2.08-5.533 3.2 5.126 3 10.059 5.9 15.01 8.771a1.155 1.155 0 0 0 .965-.04c1.679-.93 3.319-1.917 5.206-3.024z" fill="#ff223d" fill-rule="evenodd"/></svg>