<svg xmlns="http://www.w3.org/2000/svg" width="45.03" height="45"><path data-name="3" d="M11.642 31.029H38.15a4.971 4.971 0 0 1 .89.026 1.261 1.261 0 0 1 1.11 1.3 1.282 1.282 0 0 1-1.14 1.361 4.08 4.08 0 0 1-.71.023H10.455c-1.549 0-2.024-.576-1.729-2.087a11.521 11.521 0 0 1 .323-1.475c.925-2.749.55-5.433-.1-8.2C7.625 16.387 6.48 10.753 5.3 5.128a1.321 1.321 0 0 0-1.087-1.171c-.937-.25-1.853-.581-2.769-.9a1.387 1.387 0 0 1-1.01-1.8 1.344 1.344 0 0 1 1.8-.82c1.461.454 2.935.89 4.343 1.477A2.332 2.332 0 0 1 7.62 3.196a18.9 18.9 0 0 1 .587 2.585h34.487c1.68 0 2.15.535 1.89 2.162-.86 5.325-1.74 10.648-2.58 15.976a1.529 1.529 0 0 1-1.56 1.482c-5.05.384-10.1.79-15.15 1.183q-6.123.476-12.248.929a.776.776 0 0 0-.845.783c-.128.879-.351 1.737-.559 2.733zM40.85 14H9.971l2.342 10.823c.448-.02.8-.026 1.149-.053q6.828-.527 13.658-1.058 5.76-.447 11.54-.9c.4-.031.78 0 .87-.612.4-2.718.87-5.433 1.32-8.2zM8.834 8.606a16.7 16.7 0 0 1 .335 1.709.871.871 0 0 0 1.086.894c5.092-.03 10.184-.014 15.275-.013 4.98 0 9.95.007 14.92-.018a1.107 1.107 0 0 0 .88-.411 14.944 14.944 0 0 0 .35-2.161H8.834zm29.8 25.489H10.459a1.809 1.809 0 0 1-2.076-2.513l.064-.35a8.312 8.312 0 0 1 .271-1.171 14.277 14.277 0 0 0-.113-8c-1.112-4.693-2.113-9.492-3.082-14.134l-.569-2.724a.972.972 0 0 0-.831-.9c-.866-.231-1.72-.533-2.547-.825l-.249-.088a1.736 1.736 0 0 1-1.23-2.238A1.7 1.7 0 0 1 2.339.098l.485.151c1.288.4 2.62.809 3.889 1.339a2.669 2.669 0 0 1 1.238 1.485 10.579 10.579 0 0 1 .445 1.825c.032.173.064.351.1.529h34.2a2.418 2.418 0 0 1 1.96.61 2.39 2.39 0 0 1 .28 1.966l-.93 5.738c-.55 3.354-1.11 6.822-1.65 10.236a1.889 1.889 0 0 1-1.88 1.781c-3.09.235-6.22.482-9.25.72l-5.9.463c-4.568.354-8.4.647-12.252.929a.441.441 0 0 0-.521.479c-.088.619-.224 1.229-.368 1.875l-.1.445h26.29a3.467 3.467 0 0 1 .73.034 1.6 1.6 0 0 1 1.4 1.645 1.629 1.629 0 0 1-1.43 1.716 2.48 2.48 0 0 1-.445.036zm-.33-.716h.17a2.439 2.439 0 0 0 .47-.02.915.915 0 0 0 .85-1 .9.9 0 0 0-.82-.953 2.868 2.868 0 0 0-.58-.024H11.206l.09-.43c.064-.306.129-.6.193-.883.141-.632.274-1.229.358-1.82a1.124 1.124 0 0 1 1.17-1.089c3.852-.281 7.682-.574 12.243-.928q2.955-.23 5.9-.463c3.03-.239 6.17-.485 9.26-.72a1.185 1.185 0 0 0 1.23-1.184c.54-3.414 1.1-6.884 1.65-10.238l.93-5.738a1.775 1.775 0 0 0-.12-1.389 1.885 1.885 0 0 0-1.42-.36H7.918l-.06-.281c-.061-.284-.112-.563-.162-.833a10.1 10.1 0 0 0-.411-1.7 2.007 2.007 0 0 0-.847-1.077C5.201 1.732 3.885 1.326 2.612.932l-.486-.15a1 1 0 0 0-1.358.587 1.033 1.033 0 0 0 .789 1.351l.25.089c.813.288 1.654.585 2.492.807a1.665 1.665 0 0 1 1.343 1.443l.57 2.724c.967 4.637 1.967 9.432 3.077 14.116.626 2.644 1.071 5.491.1 8.391a7.6 7.6 0 0 0-.245 1.069l-.066.36a1.147 1.147 0 0 0 1.382 1.663h27.845zM12.031 25.2l-2.5-11.548h31.728l-.06.413c-.12.738-.25 1.472-.37 2.2-.32 1.967-.65 4-.95 6a.985.985 0 0 1-1.09.907l-.11.007q-4.275.335-8.54.665l-6.2.48-10.449.809c-.24.019-.473.027-.743.037l-.418.017zm-1.622-10.836l2.186 10.1h.125c.263-.01.489-.018.715-.035q5.225-.4 10.449-.809l6.2-.481 8.55-.663.11-.008c.35-.023.4-.026.44-.3.3-2 .63-4.038.96-6.007.09-.594.19-1.19.29-1.788H10.409zm-.177-2.791a1.207 1.207 0 0 1-1.415-1.216 8.5 8.5 0 0 0-.2-1.1c-.042-.186-.086-.376-.126-.574l-.087-.428h33.689l-.06.406c-.03.2-.05.407-.08.61a8.86 8.86 0 0 1-.28 1.6 1.378 1.378 0 0 1-1.21.666c-4.17.021-8.4.02-12.5.018h-6.259c-3.751 0-7.63-.007-11.444.016h-.025zm-.958-2.6l.029.13a9.044 9.044 0 0 1 .218 1.19c.043.452.142.58.732.571 3.816-.023 7.7-.019 11.449-.016h6.258c4.1 0 8.33 0 12.49-.018a1.084 1.084 0 0 0 .55-.189 8.181 8.181 0 0 0 .25-1.45l.03-.221H9.274zm25.226 26.7a4.491 4.491 0 1 1-4.48 4.528 4.465 4.465 0 0 1 4.48-4.54zm-1.75 4.4a1.746 1.746 0 0 0 1.63 1.852 1.777 1.777 0 0 0 1.87-1.709 1.814 1.814 0 0 0-1.69-1.823 1.764 1.764 0 0 0-1.81 1.664zm1.73 4.942a4.847 4.847 0 0 1-3.43-8.245 4.8 4.8 0 0 1 3.45-1.449 4.856 4.856 0 0 1 3.41 8.268 4.769 4.769 0 0 1-3.43 1.426zm.02-8.982a4.128 4.128 0 0 0-4.13 4.168 4.146 4.146 0 0 0 4.11 4.1 4.108 4.108 0 0 0 4.12-4.172 4.119 4.119 0 0 0-4.1-4.1zm-.01 6.251h-.14a2.1 2.1 0 0 1-1.95-2.221 2.094 2.094 0 0 1 .69-1.469 2.032 2.032 0 0 1 1.49-.552 2.173 2.173 0 0 1 2.03 2.191 2.113 2.113 0 0 1-.7 1.5 2.084 2.084 0 0 1-1.42.535zm-.01-3.537a1.328 1.328 0 0 0-.91.368 1.379 1.379 0 0 0-.46.974 1.387 1.387 0 0 0 1.29 1.48 1.424 1.424 0 0 0 1.5-1.364 1.461 1.461 0 0 0-1.35-1.456zM9.235 40.122a4.454 4.454 0 1 1 4.453 4.536 4.436 4.436 0 0 1-4.453-4.552zm4.472 1.8a1.752 1.752 0 0 0 1.735-1.754 1.758 1.758 0 1 0-3.514.034 1.782 1.782 0 0 0 1.779 1.709zM13.691 45a4.763 4.763 0 0 1-3.419-1.422 4.854 4.854 0 0 1-1.387-3.474A4.808 4.808 0 1 1 13.691 45zm-4.1-4.891a4.144 4.144 0 0 0 1.183 2.967 4.056 4.056 0 0 0 2.916 1.211 4.135 4.135 0 0 0 .083-8.268 4.082 4.082 0 0 0-4.185 4.09zm4.1 2.159a2.106 2.106 0 0 1-1.489-3.606 2.1 2.1 0 0 1 1.521-.641 2.158 2.158 0 0 1 2.074 2.138 2.12 2.12 0 0 1-2.086 2.109h-.02zm0-3.536a1.4 1.4 0 0 0-.984.432 1.392 1.392 0 0 0 .988 2.391h.005a1.389 1.389 0 0 0 1.386-1.4 1.454 1.454 0 0 0-1.38-1.424h-.022z" fill="#ff223d" fill-rule="evenodd"/></svg>