<svg xmlns="http://www.w3.org/2000/svg" width="38" height="50"><path data-name="4" d="M0 50V8.873h7.86a10.808 10.808 0 0 1 5.18-7.249A11.47 11.47 0 0 1 19.5.013a11.174 11.174 0 0 1 10.68 8.789H38V50H0zm26.68-37.654H11.37v3.445H7.71v-3.443H3.69v34.214h30.65V12.35h-4.06v3.465h-3.6v-3.472zM11.76 8.787h14.52c-.4-2.912-3.79-5.364-7.32-5.348-3.45.013-6.85 2.517-7.2 5.345zm13.68 13.4c.81.707 1.64 1.438 2.43 2.13-5.1 4.774-10.18 9.527-15.29 14.3-.75-.74-1.55-1.53-2.3-2.261 5.04-4.71 10.14-9.478 15.16-14.176zm.05 18.17a4.994 4.994 0 0 1-5.14-4.9 5.2 5.2 0 1 1 5.14 4.893zm.03-6.3a1.5 1.5 0 0 0-1.54 1.481 1.559 1.559 0 0 0 1.53 1.418 1.541 1.541 0 0 0 1.58-1.456 1.492 1.492 0 0 0-1.57-1.446zm-7.84-8.818a5.192 5.192 0 1 1-5.12-4.919 4.988 4.988 0 0 1 5.12 4.916zm-5.14-1.5a1.51 1.51 0 0 0-1.59 1.432 1.552 1.552 0 0 0 1.56 1.477 1.58 1.58 0 0 0 1.55-1.4 1.525 1.525 0 0 0-1.52-1.511z" fill="#ff223d" fill-rule="evenodd"/></svg>