<svg xmlns="http://www.w3.org/2000/svg" width="38" height="50" viewBox="0 0 38 50">
  <defs>
    <style>
      .cls-1 {
        fill: #ff223d;
        fill-rule: evenodd;
      }
    </style>
  </defs>
  <path id="_4" data-name="4" class="cls-1" d="M1269,967V925.873h7.86a10.808,10.808,0,0,1,5.18-7.249,11.47,11.47,0,0,1,6.46-1.611,11.174,11.174,0,0,1,10.68,8.789H1307V967h-38Zm26.68-37.654h-15.31v3.445h-3.66v-3.443h-4.02v34.214h30.65V929.35h-4.06v3.465h-3.6v-3.472Zm-14.92-3.559h14.52c-0.4-2.912-3.79-5.364-7.32-5.348C1284.51,920.452,1281.11,922.956,1280.76,925.784Zm13.68,13.4c0.81,0.707,1.64,1.438,2.43,2.13-5.1,4.774-10.18,9.527-15.29,14.3-0.75-.74-1.55-1.53-2.3-2.261C1284.32,948.646,1289.42,943.878,1294.44,939.18Zm0.05,18.17a4.994,4.994,0,0,1-5.14-4.9A5.2,5.2,0,1,1,1294.49,957.35Zm0.03-6.3a1.5,1.5,0,0,0-1.54,1.481,1.559,1.559,0,0,0,1.53,1.418,1.541,1.541,0,0,0,1.58-1.456A1.492,1.492,0,0,0,1294.52,951.054Zm-7.84-8.818a5.192,5.192,0,1,1-5.12-4.919A4.988,4.988,0,0,1,1286.68,942.236Zm-5.14-1.5a1.51,1.51,0,0,0-1.59,1.432,1.552,1.552,0,0,0,1.56,1.477,1.58,1.58,0,0,0,1.55-1.4A1.525,1.525,0,0,0,1281.54,940.737Z" transform="translate(-1269 -917)"/>
</svg>
