<svg xmlns="http://www.w3.org/2000/svg" width="12" height="14"><path d="M6.03.215a5.773 5.773 0 0 1 5.72 6.264 6.571 6.571 0 0 1-1.22 3.051 16.534 16.534 0 0 1-4.23 4.142.449.449 0 0 1-.56.023 15.064 15.064 0 0 1-4.82-5.1A5.6 5.6 0 0 1 4.44.489C4.96.346 5.5.3 6.03.215zm-.04 12.656c.17-.13.31-.232.45-.338a14.635 14.635 0 0 0 3.67-3.918 4.831 4.831 0 0 0-4.78-7.474 4.8 4.8 0 0 0-3.96 6.391c.9 2.297 2.71 3.848 4.62 5.339zM6 14a.653.653 0 0 1-.39-.129 15.145 15.145 0 0 1-4.89-5.18 5.733 5.733 0 0 1-.23-5.083A5.993 5.993 0 0 1 4.38.278a9.419 9.419 0 0 1 1.11-.2c.17-.022.34-.046.5-.073h.04a6.232 6.232 0 0 1 4.46 2.022 5.806 5.806 0 0 1 1.48 4.477 6.632 6.632 0 0 1-1.26 3.151 16.655 16.655 0 0 1-4.28 4.2A.743.743 0 0 1 6 14zM6.04.432c-.16.027-.33.049-.49.072A8.369 8.369 0 0 0 4.5.693 5.577 5.577 0 0 0 .89 3.78a5.292 5.292 0 0 0 .22 4.71 14.69 14.69 0 0 0 4.76 5.031.224.224 0 0 0 .3-.023 16.374 16.374 0 0 0 4.18-4.088 6.39 6.39 0 0 0 1.19-2.951 5.415 5.415 0 0 0-1.38-4.15A5.781 5.781 0 0 0 6.04.431zm-.05 12.713l-.14-.105c-1.94-1.519-3.76-3.077-4.68-5.429a4.788 4.788 0 0 1 .41-4.283A5.047 5.047 0 0 1 5.3.928a5.325 5.325 0 0 1 3.93 1.059 5.063 5.063 0 0 1 1.91 3.478 5.117 5.117 0 0 1-.84 3.26 14.471 14.471 0 0 1-3.72 3.977c-.1.073-.19.141-.29.219-.06.038-.11.078-.17.121zM5.98 1.32a5.3 5.3 0 0 0-.63.037 4.606 4.606 0 0 0-3.39 2.194 4.368 4.368 0 0 0-.38 3.905c.86 2.2 2.57 3.694 4.41 5.142l.03-.02c.1-.077.19-.143.28-.213a14 14 0 0 0 3.62-3.859 4.719 4.719 0 0 0 .79-2.995 4.652 4.652 0 0 0-1.76-3.186 4.792 4.792 0 0 0-2.97-1.006zm1.44 4.649a1.424 1.424 0 0 1-1.43 1.375 1.39 1.39 0 1 1 1.43-1.376zM6.01 7.561h-.03a1.652 1.652 0 0 1-1.15-.5 1.528 1.528 0 0 1-.46-1.128A1.634 1.634 0 1 1 6.01 7.56zM6 4.779a1.186 1.186 0 0 0-1.19 1.162 1.123 1.123 0 0 0 .33.822 1.22 1.22 0 0 0 .85.365A1.207 1.207 0 0 0 7.2 5.966a1.2 1.2 0 0 0-1.18-1.187H6z" fill="#333" fill-rule="evenodd"/></svg>