<svg width="19" height="19" fill="none" xmlns="http://www.w3.org/2000/svg"><path fill-rule="evenodd" clip-rule="evenodd" d="M5.865 10H14a2 2 0 0 0 1.64-.854l2.913-3.886A2 2 0 0 0 17 2H2.849L2 0H0v1h1.338L4.97 9.556l-.72 1.474A2 2 0 0 0 6 14h11v-1H6a1 1 0 0 1-1-1l.101-.44.764-1.56zM17 3H3.273L5.82 9H14a.994.994 0 0 0 .8-.402l3-4h.001A1 1 0 0 0 17 3zM6 15a2 2 0 1 1 0 4 2 2 0 0 1 0-4zm11 2a2 2 0 1 0-4 0 2 2 0 0 0 4 0zm-3 0a1 1 0 1 1 2 0 1 1 0 0 1-2 0zm-9 0a1 1 0 1 1 2 0 1 1 0 0 1-2 0z" fill="#000"/></svg>