<svg width="36" height="36" fill="none" xmlns="http://www.w3.org/2000/svg"><path fill-rule="evenodd" clip-rule="evenodd" d="M18 36c9.941 0 18-8.059 18-18S27.941 0 18 0 0 8.059 0 18s8.059 18 18 18zm3.27-29h1.312c.231 0 .418.17.418.38v3.034c0 .21-.187.38-.418.38H21.27c-1.34 0-2.432.99-2.432 2.207v2.533h3.325c.23 0 .418.17.418.38v3.034c0 .21-.187.38-.418.38h-3.325v9.293c0 .21-.188.379-.418.379h-3.343c-.231 0-.418-.17-.418-.38v-9.293h-2.241c-.23 0-.418-.17-.418-.38v-3.034c0-.21.187-.379.418-.379h2.24v-2.533C14.659 9.692 17.626 7 21.272 7z" fill="#848487"/></svg>