<svg width="13" height="20" viewBox="0 0 13 20" fill="none" xmlns="http://www.w3.org/2000/svg">
<path fill-rule="evenodd" clip-rule="evenodd" d="M6.5 19.0116L12.054 9.87689L12.0548 9.87739C12.6545 8.89309 13 7.73689 13 6.5C13 2.91015 10.0898 0 6.5 0C2.91015 0 0 2.91015 0 6.5C0 7.73689 0.34548 8.89309 0.94522 9.87739L0.94601 9.87689L6.5 19.0116ZM1.80047 9.35739L6.5 17.0867L11.1995 9.35739L11.2002 9.35779C11.7077 8.52489 12 7.54659 12 6.49999C12 3.46243 9.5376 0.99999 6.5 0.99999C3.46243 0.99999 1 3.46243 1 6.49999C1 7.54659 1.29233 8.52489 1.7998 9.35779L1.80047 9.35739ZM9 6.49999C9 5.11928 7.8807 3.99999 6.5 3.99999C5.1193 3.99999 4 5.11928 4 6.49999C4 7.88069 5.1193 8.99999 6.5 8.99999C7.8807 8.99999 9 7.88069 9 6.49999ZM5 6.49999C5 5.67157 5.6716 4.99999 6.5 4.99999C7.3284 4.99999 8 5.67157 8 6.49999C8 7.32839 7.3284 7.99999 6.5 7.99999C5.6716 7.99999 5 7.32839 5 6.49999Z"/>
</svg>
