<svg width="16" height="19" viewBox="0 0 16 19" fill="none" xmlns="http://www.w3.org/2000/svg" aria-hidden="true"><path d="M13.6903 3.22362C12.2712 1.17511 10.022 0 7.52003 0C5.01804 0 2.76889 1.17511 1.34974 3.22362C-0.0624432 5.26177 -0.388521 7.84212 0.475744 10.1218C0.706914 10.7444 1.07438 11.3492 1.56533 11.916L7.02519 18.3123C7.14867 18.4571 7.32959 18.5405 7.52003 18.5405C7.71046 18.5405 7.89138 18.4571 8.01486 18.3123L13.4732 11.9178C13.9663 11.3477 14.3333 10.7435 14.5626 10.126C15.4286 7.84213 15.1025 5.26177 13.6903 3.22362ZM13.3454 9.67195C13.1686 10.1484 12.88 10.6195 12.4881 11.0726C12.487 11.0737 12.4859 11.0748 12.485 11.0761L7.52003 16.8924L2.55199 11.0724C2.16027 10.6197 1.87166 10.1487 1.69314 9.66764C0.978385 7.78227 1.24964 5.64881 2.41896 3.96093C3.59195 2.26766 5.45133 1.29653 7.52003 1.29653C9.58868 1.29653 11.4478 2.26763 12.6209 3.96093C13.7904 5.64881 14.0619 7.78227 13.3454 9.67195Z"/><path d="M7.52003 3.84668C5.5131 3.84668 3.88013 5.47513 3.88013 7.477C3.88013 9.47886 5.51288 11.1073 7.52003 11.1073C9.52719 11.1073 11.1599 9.47886 11.1599 7.477C11.1599 5.47535 9.52697 3.84668 7.52003 3.84668ZM7.52003 9.81075C6.22981 9.81075 5.18008 8.76379 5.18008 7.47696C5.18008 6.19013 6.22981 5.14317 7.52003 5.14317C8.81026 5.14317 9.85998 6.19013 9.85998 7.47696C9.85998 8.76379 8.81026 9.81075 7.52003 9.81075Z"/></svg>
