<svg xmlns="http://www.w3.org/2000/svg" viewBox="0 0 753.12 212.94" style="width:100%;height:auto"><g data-name="Слой 2"><g data-name="Слой 1"><path class="logo-circle" d="M420.19 79.94c11.64 19.2 28.59 30.14 51 32.79l-27.76 41.54h40.33a1.57 1.57 0 0 0 1.48-.82Q507.11 121.23 529 89a106.71 106.71 0 0 0 8.62-14 61.5 61.5 0 0 0 6.07-30.78c-1.05-17.14-8.07-31.53-20.31-43.46a2.26 2.26 0 0 1-.57-.73c29.06.19 54.19 10.18 75.06 30.54a106.33 106.33 0 0 1 27.5 105.84 66.08 66.08 0 0 0-21.62-23.8A64.81 64.81 0 0 0 573.39 102l27.82-41.63h-40.27a1.66 1.66 0 0 0-1.57.82q-21.81 32.25-43.7 64.43a106.27 106.27 0 0 0-8.79 14.38 61.62 61.62 0 0 0-5.9 30.34c1 16.33 7.44 30.24 18.73 42l.55.6a106.41 106.41 0 0 1-81.05-41c-24.63-31.59-25.58-68.54-19.02-92z"/><path class="logo-circle" d="M567 135.53a31.28 31.28 0 1 1-31.73 31.12c-.04-15.56 13.84-31.55 31.73-31.12zM477.71 79A31.31 31.31 0 0 1 447 55.81a31 31 0 0 1 17-36.18 32.1 32.1 0 0 1 37.55 7.52c8.56 9.51 10.46 23.74 4.25 34.9-5.11 9.17-12.73 15.18-23.4 16.75a19.68 19.68 0 0 1-2 .22c-.94.04-1.82-.02-2.69-.02z"/><path class="logo-font" d="M35.75 132.5h-19C11.74 114 6.08 96.44 0 79.75h16.18A341.23 341.23 0 0 1 27.2 116c3.19-9.48 8.14-27.31 10.3-36.27h14.32c3 9.38 7.52 26.27 9.79 36.27a364 364 0 0 0 10.82-36.25H88.3c-5 16.79-11.34 36.16-18.14 52.75h-19c-1.75-8.76-4.94-23.08-6.9-30.6-1.92 9.27-5.93 22.87-8.51 30.6zM137.24 131.06a67.77 67.77 0 0 1-19.06 2.88c-14.84 0-25.86-6.49-25.86-28.12 0-21.23 9.68-27.51 24.83-27.51 17.51 0 25.14 5.36 23.69 32.45H108.6c.2 8.45 4 10 11.64 10a71.88 71.88 0 0 0 14.63-1.76zM108.7 99.12H127c-.21-7.32-2.58-8.86-8.76-8.86-6.55 0-8.61 2.16-9.54 8.86zM151.66 58.11h15.87V81.3a30.62 30.62 0 0 1 13.09-3c13.7 0 20.81 6.08 20.81 27.3 0 21.64-7.94 28.33-25.86 28.33-8.25 0-18.24-1.54-23.91-3.71zm15.87 61.82a24.74 24.74 0 0 0 8 1.34c7.52 0 10-1.85 10-15.35 0-11.13-2.27-14-9.58-14-4.74 0-8.45 1.44-8.45 3.71zM248.41 92.94a63.14 63.14 0 0 0-15.56-2.27c-4.94 0-7.41.41-7.41 4.53 0 2.79 1.44 3.51 9.58 4.54 12.26 1.54 17.72 5.25 17.72 16.07 0 14.32-10.31 18.13-23.6 18.13-5.66 0-13.91-1.13-18.75-2.88l3.09-12a58.76 58.76 0 0 0 14.94 2.16c6.18 0 9.07-.51 9.07-4.64 0-2.88-1.75-4-10.51-4.84-11-1-16.9-4.22-16.9-15.45 0-14.32 10.2-18 23.39-18a60.61 60.61 0 0 1 18 2.88zM279.84 64.4c0 7.11-2.27 8.34-9 8.34s-9-1.23-9-8.34c0-6.49 2.16-7.52 9-7.52s9 1.03 9 7.52zm-1 68.1h-15.9V79.75h15.87zM310.64 93.35V113c0 5.36 1.55 7.52 7.11 7.52a25.93 25.93 0 0 0 8.45-1.44l2.58 12.16c-3.92 1.64-10.2 2.67-15.87 2.67-11.64 0-18.13-3.5-18.13-19.26v-21.3h-8.56v-13.6h8.56v-7.83l15.86-6.39v14.22h16.49v13.6zM379.05 131.06a67.66 67.66 0 0 1-19.05 2.88c-14.83 0-25.86-6.49-25.86-28.12 0-21.23 9.69-27.51 24.83-27.51 17.52 0 25.14 5.36 23.7 32.45h-32.26c.21 8.45 4 10 11.64 10a71.71 71.71 0 0 0 14.63-1.76zm-28.54-31.94h18.34c-.2-7.32-2.57-8.86-8.75-8.86-6.6 0-8.66 2.16-9.59 8.86zM664.3 79.65h15.87v4.12c1.75-3.09 5.15-5.57 12.78-5.57a50.76 50.76 0 0 1 5.25.31v14.74a27.64 27.64 0 0 0-7.42-.83c-5.66 0-10.61 1.86-10.61 5.36v34.62H664.3zM737.46 79.65h15.66v49.55a87.61 87.61 0 0 1-26.69 4.74c-14.63 0-21.63-6.18-21.63-25V79.65h15.66v28c0 9.48 1.64 12.16 9.37 12.16a33.78 33.78 0 0 0 7.63-1z"/></g></g></svg>