<svg width="25" height="25" fill="none" xmlns="http://www.w3.org/2000/svg"><path d="M24.993 11.426a.516.516 0 0 0-.027-.137c-.006-.017-.01-.033-.018-.05a.498.498 0 0 0-.1-.148l-2.973-2.973v-2.91c0-.011-.006-.021-.007-.032a.538.538 0 0 0-.026-.134c-.006-.017-.01-.033-.018-.05a.52.52 0 0 0-.102-.152L17.034.153a.516.516 0 0 0-.153-.103c-.015-.007-.031-.011-.047-.017a.52.52 0 0 0-.137-.027c-.01 0-.02-.006-.03-.006H3.646a.521.521 0 0 0-.521.52v7.598L.153 11.09l-.001.001a.51.51 0 0 0-.1.149c-.008.016-.012.032-.018.049a.496.496 0 0 0-.027.137c-.001.011-.007.02-.007.032v9.896c0 .288.233.521.52.521h2.605v2.604c0 .288.233.521.52.521h17.71c.287 0 .52-.233.52-.52v-2.605h2.604c.288 0 .521-.233.521-.52v-9.897c0-.011-.006-.02-.007-.032zm-1.771-.489h-1.347V9.591l1.347 1.347zm-3.125-6.25h-2.91V1.779l2.91 2.91zM4.167 1.042h11.979v4.166c0 .288.233.521.52.521h4.167v5.208H4.167V1.043zM3.125 9.59v1.347H1.778L3.125 9.59zm17.708 14.367H4.167v-2.083h16.666v2.083zm3.125-3.125H1.042V11.98H23.958v8.854z" fill="#000"/><path d="M9.507 13.917a1.467 1.467 0 0 0-.571-.306 2.317 2.317 0 0 0-.62-.088H6.581v6.269h1.045v-2.515h.743c.219 0 .431-.038.638-.115.207-.077.39-.195.549-.354.16-.16.287-.358.385-.598.098-.24.146-.518.146-.837 0-.354-.054-.649-.164-.885a1.661 1.661 0 0 0-.416-.571zm-.668 2.231a.792.792 0 0 1-.61.261h-.603v-1.992h.602c.248 0 .452.077.611.23.16.154.24.399.24.735 0 .337-.08.592-.24.766zM16.002 19.792h1.07V17.1h1.604v-.912h-1.611V14.48h1.743v-.956h-2.806v6.269zM12.54 13.523h-1.576v6.269h1.567c.809 0 1.421-.273 1.837-.82.416-.545.624-1.314.624-2.306s-.208-1.763-.624-2.315c-.416-.552-1.025-.828-1.828-.828zm1.288 4.104a2.13 2.13 0 0 1-.287.686 1.24 1.24 0 0 1-.443.412 1.164 1.164 0 0 1-.558.137h-.505v-4.41h.505c.2 0 .387.046.558.138.171.091.319.229.443.412.124.182.22.413.287.69.068.278.102.602.102.974 0 .366-.034.686-.102.96z" fill="#000"/></svg>