<svg viewBox="0 0 19 19" fill="none" xmlns="http://www.w3.org/2000/svg">
<path fill-rule="evenodd" clip-rule="evenodd" d="M19 17.5C19 18.3271 18.3271 19 17.5 19C7.85058 19 0 11.1494 0 1.5C0 0.67291 0.67291 0 1.5 0H5C5.82708 0 6.49999 0.67291 6.49999 1.5C6.49999 2.67041 6.68359 3.81878 7.04489 4.9136C7.2207 5.47311 7.07281 6.0542 6.66061 6.43649L5.2319 7.8726C6.56539 10.3428 8.63569 12.4121 11.1172 13.7559L12.5566 12.3164C12.9668 11.9219 13.5488 11.7822 14.0801 11.9531C15.1807 12.3164 16.3301 12.5 17.5 12.5C18.3271 12.5 19 13.1729 19 14V17.5ZM5 1H1.5C1.22409 1 1 1.22409 1 1.5C1 10.5977 8.40189 18 17.5 18C17.7754 18 18 17.7754 18 17.5V14C18 13.7246 17.7754 13.5 17.5 13.5C16.2227 13.5 14.9688 13.2998 13.7725 12.9043C13.5938 12.8477 13.3975 12.8945 13.2568 13.0303L11.3076 14.9795C8.06539 13.3291 5.64651 10.9111 4.00979 7.6826L5.9663 5.71728C6.13128 5.5635 6.13769 5.36178 6.09329 5.22021C5.70019 4.03131 5.5 2.77731 5.5 1.5C5.5 1.22409 5.27591 1 5 1Z"/>
</svg>
