<svg xmlns="http://www.w3.org/2000/svg" width="14" height="14"><path d="M4.5 5.6a8.638 8.638 0 0 0 3.98 3.948 12.181 12.181 0 0 1 1.07-1.169.932.932 0 0 1 1.43-.1c.79.484 1.58.989 2.39 1.446a1.158 1.158 0 0 1 .62 1.038 3.074 3.074 0 0 1-2.53 3.11 5.893 5.893 0 0 1-3.51-.352A12.653 12.653 0 0 1 .31 5.4a4.611 4.611 0 0 1 .31-4A2.862 2.862 0 0 1 3.41.026a1.025 1.025 0 0 1 .78.531c.52.877 1.05 1.749 1.6 2.6a.785.785 0 0 1 0 1.028C5.4 4.66 4.97 5.09 4.5 5.6zm.19-1.8c-.52-.836-.97-1.53-1.38-2.246a.457.457 0 0 0-.64-.23 1.931 1.931 0 0 0-1.27 1.5 4.914 4.914 0 0 0 .35 2.956 11.844 11.844 0 0 0 5.71 6.152 6.225 6.225 0 0 0 3.16.785 2.163 2.163 0 0 0 2.07-1.356.506.506 0 0 0-.25-.712c-.54-.294-1.06-.634-1.59-.955-.59-.362-.71-.334-1.06.288a1.355 1.355 0 0 0-.16.377c-.21.685-.47.867-1.12.551a14.306 14.306 0 0 1-2.43-1.422 8.614 8.614 0 0 1-3.03-4.136.658.658 0 0 1 .47-.925 11.334 11.334 0 0 0 1.17-.634z" fill="#ff223d" fill-rule="evenodd"/></svg>