<svg xmlns="http://www.w3.org/2000/svg" width="14" height="14"><path d="M4.35 10.389l-2.861 2.865c-.1.1-.194.192-.289.289a.536.536 0 1 1-.753-.734c.723-.719 1.442-1.444 2.167-2.16.326-.323.663-.633 1.027-.979a5.738 5.738 0 0 1-1.125-5.246 5.566 5.566 0 0 1 2.338-3.232 5.743 5.743 0 0 1 7.551 8.517 5.817 5.817 0 0 1-8.055.68zm3.69.256A4.7 4.7 0 1 0 3.355 6a4.7 4.7 0 0 0 4.685 4.645zM.725 14a.7.7 0 0 1-.51-.245.717.717 0 0 1 .092-1.089l.868-.867q.648-.65 1.3-1.3c.225-.222.452-.436.692-.661l.206-.194a5.926 5.926 0 0 1-1.049-5.277 5.761 5.761 0 0 1 2.421-3.349 5.947 5.947 0 0 1 7.82 8.818 5.983 5.983 0 0 1-8.189.817l-2.84 2.843-.185.185A.885.885 0 0 1 .725 14zM8.053.408a5.5 5.5 0 0 0-3.084.953 5.365 5.365 0 0 0-2.256 3.117 5.5 5.5 0 0 0 1.09 5.069l.112.146-.133.126-.34.321c-.238.224-.464.436-.684.654q-.651.645-1.3 1.293-.433.435-.868.868c-.3.3-.159.441-.085.518a.313.313 0 0 0 .217.119.523.523 0 0 0 .329-.191c.062-.064.126-.126.189-.188l.1-.1 2.987-2.992.142.107A5.555 5.555 0 1 0 8.053.407zM8.029 10.85a4.9 4.9 0 0 1 .035-9.8h.028a4.9 4.9 0 0 1 3.453 8.349 4.922 4.922 0 0 1-3.5 1.452h-.011zm.063-9.393h-.026A4.492 4.492 0 0 0 3.56 6a4.4 4.4 0 0 0 1.311 3.137 4.45 4.45 0 0 0 3.158 1.308h.01a4.528 4.528 0 0 0 3.217-1.332 4.458 4.458 0 0 0-.049-6.347 4.421 4.421 0 0 0-3.115-1.31z" fill="#aaa9ad" fill-rule="evenodd"/></svg>