<svg width="36" height="36" fill="none" xmlns="http://www.w3.org/2000/svg"><path fill-rule="evenodd" clip-rule="evenodd" d="M18 36c9.941 0 18-8.059 18-18S27.941 0 18 0 0 8.059 0 18s8.059 18 18 18zm10.645-23.419a.229.229 0 0 1 .328.298c-.702 1.32-1.585 1.825-1.985 1.996.599 2.622-.11 5.473-1.962 7.854-2.08 2.674-5.261 4.271-8.51 4.271h-.002c-2.952 0-5.871-1.285-8.442-3.715a.228.228 0 0 1 .184-.393c.592.07 1.16.107 1.69.107h.001c1.95 0 3.502-.494 4.485-1.427a3.46 3.46 0 0 0 .813-1.15c-.902-.074-2.936-.528-3.785-1.694-.177-.244-.12-.442-.072-.538.13-.254.528-.406 1.028-.495-.638-.224-1.36-.593-1.976-1.2-.42-.415-.395-.774-.3-1.003.184-.451.776-.737 1.33-.884-1.01-.435-2.56-1.314-3.281-2.81a.228.228 0 0 1 .195-.327c.337-.015.675-.023 1.003-.023 3.378 0 5.695.822 7.044 1.511.884.452 1.477.902 1.817 1.199.06-.411.198-1.034.51-1.677.494-1.017 1.534-2.27 3.679-2.467.098-.01.196-.014.293-.014 1.726 0 2.725 1.402 3.015 1.88.41-.095 1.532-.395 2.315-.966a.229.229 0 0 1 .363.184c.004.852-.598 1.514-1.114 1.934.431-.065.95-.195 1.336-.45z" fill="#848487"/></svg>