<svg width="36" height="36" fill="none" xmlns="http://www.w3.org/2000/svg"><path fill-rule="evenodd" clip-rule="evenodd" d="M18 36c9.941 0 18-8.059 18-18S27.941 0 18 0 0 8.059 0 18s8.059 18 18 18zm9.038-14.83c.622.55 1.266 1.116 1.832 1.75.307.343.659.761.93 1.25.238.432.243.917.012 1.297a1.078 1.078 0 0 1-.892.52h-3.668c-.982.07-1.838-.254-2.614-.99-.355-.336-.695-.69-1.023-1.033l-.012-.012c-.148-.155-.297-.31-.447-.463a3.2 3.2 0 0 0-.595-.496.714.714 0 0 0-.347-.12c-.05 0-.204 0-.37.279-.26.443-.319.962-.343 1.457-.05.968-.446 1.328-1.514 1.377-.217.01-.432.014-.64.014-1.839 0-3.416-.365-4.824-1.115-1.337-.71-2.5-1.723-3.658-3.186-1.654-2.09-3.105-4.5-4.706-7.815-.2-.414-.211-.755-.034-1.016.177-.26.513-.395.999-.403.568-.011 1.15-.017 1.777-.017.574 0 1.175.005 1.84.014.603.01 1.075.332 1.327.906.68 1.562 1.467 2.92 2.403 4.153.275.363.511.657.834.863.137.087.212.097.237.097.082 0 .162-.163.184-.212.097-.213.156-.463.186-.786.107-1.162.09-2.122-.056-3.022-.083-.518-.376-.815-.897-.907-.105-.018-.427-.075-.526-.338-.098-.259.1-.473.194-.575.351-.384.725-.641 1.403-.641h4.16c.022 0 .046.002.068.006.852.156 1.077.591 1.18 1.292l.002.044.003 4.307v.01c-.006.222.136.7.348.776a.182.182 0 0 0 .05.009c.1 0 .237-.137.358-.258l.043-.043c1.022-1.011 1.729-2.223 2.285-3.276.28-.528.525-1.084.748-1.606.233-.546.64-.812 1.246-.812h.033l4 .003c.132 0 .273.003.415.025.287.046.694.143.903.462.21.319.118.7.03.959-.335.982-.967 1.796-1.578 2.583l-.066.085c-.319.411-.652.821-.974 1.217l-.001.002c-.356.437-.724.889-1.07 1.34-.501.655-.478.872.155 1.448.22.2.447.4.667.595l.003.002z" fill="#848487"/></svg>