<svg xmlns="http://www.w3.org/2000/svg" width="180" height="50"><path fill-rule="evenodd" fill="#FFF" d="M149.612 32.031c-1.289-2.287-2.986-4.167-5.188-5.588-2.202-1.421-4.617-2.255-7.285-2.493l6.675-9.775h-.273c-3.13 0-6.26.001-9.391-.004-.175 0-.277.049-.376.193-3.49 5.047-6.975 10.097-10.487 15.129-.765 1.096-1.529 2.184-2.11 3.388a14.204 14.204 0 0 0-1.415 7.124c.229 3.835 1.785 7.1 4.494 9.856l.132.139c-3.843-.122-7.442-.999-10.831-2.685a25.289 25.289 0 0 1-8.616-6.949c-5.912-7.409-6.139-16.087-4.565-21.595 2.793 4.508 6.86 7.078 12.245 7.698l-6.662 9.755h.246c3.146 0 6.292-.001 9.438.004.171.001.261-.058.353-.191 3.491-5.046 6.977-10.096 10.488-15.128.747-1.071 1.498-2.132 2.071-3.305 1.119-2.289 1.613-4.701 1.455-7.229-.252-4.024-1.937-7.403-4.872-10.203-.05-.048-.102-.094-.139-.172 6.975.051 13.013 2.398 18.013 7.178a24.609 24.609 0 0 1 6.6 24.853zm-34.317-13.527a5.025 5.025 0 0 1-.487.051c-.21.008-.421.002-.631.002-3.496.043-6.456-2.225-7.362-5.453-.957-3.411.784-7.002 4.064-8.495 3.105-1.413 6.742-.701 9.01 1.766 2.054 2.234 2.51 5.574 1.019 8.196-1.225 2.153-3.054 3.564-5.613 3.933zm20.32 13.321c4.215.007 7.601 3.287 7.591 7.356-.01 4.078-3.4 7.342-7.614 7.33-4.233-.011-7.572-3.283-7.593-7.38-.019-3.654 3.313-7.408 7.616-7.306zM91.82 28.127h-7.738c.05 1.983.965 2.346 2.794 2.346.914 0 2.571-.169 3.51-.411l.569 2.83c-1.261.412-3.14.678-4.574.678-3.559 0-6.204-1.524-6.204-6.604 0-4.984 2.323-6.459 5.957-6.459 4.203 0 6.032 1.257 5.686 7.62zm-5.414-4.814c-1.582 0-2.076.508-2.299 2.08h4.4c-.049-1.717-.618-2.08-2.101-2.08zm-10.161 7.112c.791 0 1.434-.145 2.027-.339l.618 2.855c-.939.387-2.447.629-3.806.629-2.794 0-4.351-.823-4.351-4.524v-5.008h-2.052v-3.193h2.052v-1.838l3.807-1.5v3.338h3.955v3.193H74.54v4.621c0 1.258.37 1.766 1.705 1.766zM64.997 19.2c-1.632 0-2.151-.29-2.151-1.959 0-1.524.519-1.766 2.151-1.766 1.607 0 2.151.242 2.151 1.766 0 1.669-.544 1.959-2.151 1.959zm-8.604 6.338c2.942.363 4.252 1.234 4.252 3.774 0 3.363-2.472 4.258-5.661 4.258-1.359 0-3.337-.266-4.499-.678l.742-2.806c.939.266 2.348.508 3.584.508 1.483 0 2.176-.121 2.176-1.088 0-.678-.421-.944-2.522-1.137-2.645-.242-4.054-.992-4.054-3.629 0-3.363 2.447-4.233 5.612-4.233 1.359 0 3.139.266 4.326.677l-.742 2.758c-.989-.266-2.447-.533-3.733-.533-1.186 0-1.78.097-1.78 1.065 0 .653.346.822 2.299 1.064zM42.128 33.57c-1.977 0-4.375-.363-5.735-.871V15.765H40.2v5.443c.717-.363 1.928-.701 3.14-.701 3.288 0 4.993 1.427 4.993 6.41 0 5.08-1.903 6.653-6.205 6.653zm.099-9.87c-1.137 0-2.027.338-2.027.871v5.709c.593.217 1.36.314 1.928.314 1.805 0 2.398-.435 2.398-3.604 0-2.613-.544-3.29-2.299-3.29zm-16.168 4.427c.049 1.983.964 2.346 2.793 2.346.915 0 2.571-.169 3.511-.411l.568 2.83c-1.261.412-3.139.678-4.573.678-3.56 0-6.205-1.524-6.205-6.604 0-4.984 2.324-6.459 5.958-6.459 4.202 0 6.031 1.257 5.685 7.62h-7.737zm2.324-4.814c-1.583 0-2.077.508-2.299 2.08h4.4c-.05-1.717-.618-2.08-2.101-2.08zm-16.095 9.918c-.421-2.056-1.187-5.419-1.657-7.185-.469 2.177-1.433 5.371-2.051 7.185H4.031A153.075 153.075 0 0 0 .002 20.845h3.881c.989 2.613 1.903 5.564 2.645 8.515.766-2.225 1.953-6.41 2.472-8.515h3.436c.717 2.202 1.804 6.169 2.348 8.515.989-2.83 1.929-5.66 2.596-8.515h3.807c-1.187 3.943-2.719 8.491-4.351 12.386h-4.548zm54.612 0h-3.806V20.845H66.9v12.386zM173.603 33.594c-3.51 0-5.191-1.452-5.191-5.879v-6.87h3.757v6.58c0 2.226.396 2.855 2.25 2.855.618 0 1.162-.097 1.829-.242v-9.193h3.758v11.636c-1.607.557-4.153 1.113-6.403 1.113zm-11.1-8.491v8.128h-3.807V20.845h3.807v.968c.42-.726 1.236-1.306 3.065-1.306.371 0 .816.024 1.261.072v3.459c-.494-.145-1.162-.193-1.78-.193-1.36 0-2.546.435-2.546 1.258z"/></svg>